<svg width="25525" height="9439" viewBox="0 0 25525 9439" fill="none" xmlns="http://www.w3.org/2000/svg">
<rect width="25525" height="9439" fill="black"/>
<path d="M10741.4 3357.66C10824.1 3319.46 10903.1 3281.27 10978.2 3243.07C11053.3 3204.88 11113.1 3176.87 11157.7 3159.04C11202.3 3141.22 11237.9 3132.3 11264.7 3132.3C11309.2 3132.3 11347.4 3147.58 11379.2 3178.14C11412.3 3207.42 11428.9 3244.34 11428.9 3288.91C11428.9 3314.37 11420.6 3341.11 11404.1 3369.12C11388.8 3395.85 11372.2 3413.04 11354.4 3420.68C11190.2 3485.61 11009.4 3532.72 10812 3562C10847.7 3595.11 10891.6 3639.03 10943.8 3693.78C10996 3748.53 11023.4 3777.81 11025.9 3781.63C11045 3808.37 11071.8 3841.47 11106.1 3880.94C11140.5 3920.41 11164.1 3951.6 11176.8 3974.52C11190.8 3996.16 11197.8 4022.9 11197.8 4054.73C11197.8 4095.47 11182.5 4131.12 11152 4161.67C11121.4 4192.23 11082 4207.51 11033.6 4207.51C10985.2 4207.51 10930.4 4169.95 10869.3 4094.83C10809.5 4019.71 10731.8 3884.76 10636.3 3689.96C10539.6 3865.66 10474.6 3981.52 10441.5 4037.54C10408.4 4093.56 10376.6 4136.21 10346.1 4165.49C10315.5 4193.5 10280.5 4207.51 10241 4207.51C10193.9 4207.51 10154.4 4191.59 10122.6 4159.76C10092.1 4126.66 10076.8 4091.65 10076.8 4054.73C10076.8 4020.35 10083.1 3994.25 10095.9 3976.43C10213 3817.28 10335.2 3679.14 10462.6 3562C10355.6 3545.45 10260.1 3526.99 10176.1 3506.62C10092.1 3486.25 10002.9 3456.33 9908.72 3416.86C9893.44 3409.22 9878.16 3392.03 9862.88 3365.3C9848.88 3337.29 9841.88 3311.82 9841.88 3288.91C9841.88 3244.34 9857.79 3207.42 9889.62 3178.14C9922.72 3147.58 9960.28 3132.3 10002.3 3132.3C10032.9 3132.3 10071 3141.85 10116.9 3160.95C10162.7 3178.78 10220.6 3205.51 10290.7 3241.16C10362 3275.54 10442.8 3314.37 10533.2 3357.66C10516.7 3277.45 10502.7 3185.78 10491.2 3082.65C10481 2978.25 10475.9 2906.95 10475.9 2868.75C10475.9 2821.65 10490.6 2781.54 10519.8 2748.44C10550.4 2714.06 10589.2 2696.88 10636.3 2696.88C10682.2 2696.88 10719.7 2714.06 10749 2748.44C10779.6 2781.54 10794.9 2826.1 10794.9 2882.12C10794.9 2897.4 10792.3 2927.96 10787.2 2973.79C10783.4 3018.35 10777 3073.1 10768.1 3138.03C10760.5 3201.69 10751.6 3274.9 10741.4 3357.66Z" fill="#EC1D1D"/>
<path d="M12868.4 3357.66C12951.1 3319.46 13030.1 3281.27 13105.2 3243.07C13180.3 3204.88 13240.1 3176.87 13284.7 3159.04C13329.3 3141.22 13364.9 3132.3 13391.7 3132.3C13436.2 3132.3 13474.4 3147.58 13506.2 3178.14C13539.3 3207.42 13555.9 3244.34 13555.9 3288.91C13555.9 3314.37 13547.6 3341.11 13531.1 3369.12C13515.8 3395.85 13499.2 3413.04 13481.4 3420.68C13317.2 3485.61 13136.4 3532.72 12939 3562C12974.7 3595.11 13018.6 3639.03 13070.8 3693.78C13123 3748.53 13150.4 3777.81 13152.9 3781.63C13172 3808.37 13198.8 3841.47 13233.1 3880.94C13267.5 3920.41 13291.1 3951.6 13303.8 3974.52C13317.8 3996.16 13324.8 4022.9 13324.8 4054.73C13324.8 4095.47 13309.5 4131.12 13279 4161.67C13248.4 4192.23 13209 4207.51 13160.6 4207.51C13112.2 4207.51 13057.4 4169.95 12996.3 4094.83C12936.5 4019.71 12858.8 3884.76 12763.3 3689.96C12666.6 3865.66 12601.6 3981.52 12568.5 4037.54C12535.4 4093.56 12503.6 4136.21 12473.1 4165.49C12442.5 4193.5 12407.5 4207.51 12368 4207.51C12320.9 4207.51 12281.4 4191.59 12249.6 4159.76C12219.1 4126.66 12203.8 4091.65 12203.8 4054.73C12203.8 4020.35 12210.1 3994.25 12222.9 3976.43C12340 3817.28 12462.2 3679.14 12589.6 3562C12482.6 3545.45 12387.1 3526.99 12303.1 3506.62C12219.1 3486.25 12129.9 3456.33 12035.7 3416.86C12020.4 3409.22 12005.2 3392.03 11989.9 3365.3C11975.9 3337.29 11968.9 3311.82 11968.9 3288.91C11968.9 3244.34 11984.8 3207.42 12016.6 3178.14C12049.7 3147.58 12087.3 3132.3 12129.3 3132.3C12159.9 3132.3 12198 3141.85 12243.9 3160.95C12289.7 3178.78 12347.6 3205.51 12417.7 3241.16C12489 3275.54 12569.8 3314.37 12660.2 3357.66C12643.7 3277.45 12629.7 3185.78 12618.2 3082.65C12608 2978.25 12602.9 2906.95 12602.9 2868.75C12602.9 2821.65 12617.6 2781.54 12646.8 2748.44C12677.4 2714.06 12716.2 2696.88 12763.3 2696.88C12809.2 2696.88 12846.7 2714.06 12876 2748.44C12906.6 2781.54 12921.9 2826.1 12921.9 2882.12C12921.9 2897.4 12919.3 2927.96 12914.2 2973.79C12910.4 3018.35 12904 3073.1 12895.1 3138.03C12887.5 3201.69 12878.6 3274.9 12868.4 3357.66Z" fill="#EC1D1D"/>
<path d="M14995.4 3357.66C15078.1 3319.46 15157.1 3281.27 15232.2 3243.07C15307.3 3204.88 15367.1 3176.87 15411.7 3159.04C15456.3 3141.22 15491.9 3132.3 15518.7 3132.3C15563.2 3132.3 15601.4 3147.58 15633.2 3178.14C15666.3 3207.42 15682.9 3244.34 15682.9 3288.91C15682.9 3314.37 15674.6 3341.11 15658.1 3369.12C15642.8 3395.85 15626.2 3413.04 15608.4 3420.68C15444.2 3485.61 15263.4 3532.72 15066 3562C15101.7 3595.11 15145.6 3639.03 15197.8 3693.78C15250 3748.53 15277.4 3777.81 15279.9 3781.63C15299 3808.37 15325.8 3841.47 15360.1 3880.94C15394.5 3920.41 15418.1 3951.6 15430.8 3974.52C15444.8 3996.16 15451.8 4022.9 15451.8 4054.73C15451.8 4095.47 15436.5 4131.12 15406 4161.67C15375.4 4192.23 15336 4207.51 15287.6 4207.51C15239.2 4207.51 15184.4 4169.95 15123.3 4094.83C15063.5 4019.71 14985.8 3884.76 14890.3 3689.96C14793.6 3865.66 14728.6 3981.52 14695.5 4037.54C14662.4 4093.56 14630.6 4136.21 14600.1 4165.49C14569.5 4193.5 14534.5 4207.51 14495 4207.51C14447.9 4207.51 14408.4 4191.59 14376.6 4159.76C14346.1 4126.66 14330.8 4091.65 14330.8 4054.73C14330.8 4020.35 14337.1 3994.25 14349.9 3976.43C14467 3817.28 14589.2 3679.14 14716.6 3562C14609.6 3545.45 14514.1 3526.99 14430.1 3506.62C14346.1 3486.25 14256.9 3456.33 14162.7 3416.86C14147.4 3409.22 14132.2 3392.03 14116.9 3365.3C14102.9 3337.29 14095.9 3311.82 14095.9 3288.91C14095.9 3244.34 14111.8 3207.42 14143.6 3178.14C14176.7 3147.58 14214.3 3132.3 14256.3 3132.3C14286.9 3132.3 14325 3141.85 14370.9 3160.95C14416.7 3178.78 14474.6 3205.51 14544.7 3241.16C14616 3275.54 14696.8 3314.37 14787.2 3357.66C14770.7 3277.45 14756.7 3185.78 14745.2 3082.65C14735 2978.25 14729.9 2906.95 14729.9 2868.75C14729.9 2821.65 14744.6 2781.54 14773.8 2748.44C14804.4 2714.06 14843.2 2696.88 14890.3 2696.88C14936.2 2696.88 14973.7 2714.06 15003 2748.44C15033.6 2781.54 15048.9 2826.1 15048.9 2882.12C15048.9 2897.4 15046.3 2927.96 15041.2 2973.79C15037.4 3018.35 15031 3073.1 15022.1 3138.03C15014.5 3201.69 15005.6 3274.9 14995.4 3357.66Z" fill="#EC1D1D"/>
<path d="M10002.3 2862.43C10077.8 2862.43 10148.6 2883.09 10206.9 2906.22C10206.3 2892.45 10206 2879.93 10206 2868.75C10206 2760.5 10241.8 2655.49 10317.7 2569.63L10317.9 2569.39L10318.1 2569.14C10401.3 2475.58 10514.3 2427 10636.3 2427C10758.1 2427 10869.8 2476.41 10951 2569.41C11035.3 2663 11064.7 2777.04 11064.7 2882.12C11064.7 2889.45 11064.5 2897.42 11064.1 2905.85C11118.5 2884.54 11189.5 2862.43 11264.7 2862.43C11376.3 2862.43 11480.2 2902.81 11562.2 2979.73C11651.1 3060.38 11698.8 3169.61 11698.8 3288.91C11698.8 3373.48 11671.4 3446.68 11637.4 3504.65C11608.7 3554.48 11554.9 3628.36 11460.7 3668.73L11457.2 3670.24L11453.6 3671.65C11410.8 3688.57 11367.2 3704.34 11322.8 3719C11353.9 3755.49 11385.1 3795.65 11408.5 3836.04C11452.8 3908.31 11467.7 3985.71 11467.7 4054.73C11467.7 4171.72 11420.6 4274.74 11342.8 4352.5C11255.4 4439.92 11144.2 4477.38 11033.6 4477.38C10851.9 4477.38 10726.4 4346.78 10660 4265.15L10659.1 4264.07L10658.2 4262.98C10651 4253.93 10643.8 4244.4 10636.4 4234.41C10605.7 4280.07 10571.4 4323.33 10532.8 4360.34L10530.6 4362.41L10528.4 4364.43C10450.8 4435.55 10351.6 4477.38 10241 4477.38C10126 4477.38 10016.8 4435.6 9931.78 4350.59L9927.97 4346.78L9924.31 4342.81C9858.39 4271.4 9806.9 4173.72 9806.9 4054.73C9806.9 3993.83 9817.01 3902.53 9876.27 3819.56L9877.38 3818L9878.52 3816.45C9902.34 3784.1 9926.42 3752.45 9950.78 3721.51C9902.53 3705.05 9853.74 3686.43 9804.44 3665.77L9796.11 3662.28L9788.02 3658.24C9700.19 3614.33 9651.86 3539.95 9628.57 3499.19L9624.85 3492.69L9621.5 3485.99C9595.27 3433.52 9572 3366.18 9572 3288.91C9572 3171.6 9617.53 3061.92 9706.57 2979.83H9706.57C9706.63 2979.78 9706.69 2979.72 9706.76 2979.66C9706.8 2979.62 9706.85 2979.57 9706.9 2979.53H9706.9C9785.87 2906.77 9887.42 2862.43 10002.3 2862.43ZM10475.9 2868.75C10475.9 2906.95 10481 2978.25 10491.2 3082.65C10502.7 3185.78 10516.7 3277.45 10533.2 3357.66C10442.8 3314.37 10362 3275.54 10290.7 3241.16C10220.6 3205.51 10162.7 3178.77 10116.9 3160.95C10071 3141.85 10032.9 3132.3 10002.3 3132.3C9960.28 3132.3 9922.72 3147.58 9889.62 3178.14C9857.79 3207.42 9841.87 3244.34 9841.87 3288.91C9841.87 3311.82 9848.88 3337.29 9862.88 3365.3C9878.16 3392.03 9893.44 3409.22 9908.72 3416.86C10002.9 3456.33 10092.1 3486.25 10176.1 3506.62C10260.1 3526.99 10355.6 3545.45 10462.6 3562C10335.2 3679.14 10213 3817.28 10095.9 3976.42C10083.1 3994.25 10076.8 4020.35 10076.8 4054.73C10076.8 4091.65 10092.1 4126.66 10122.6 4159.76C10154.4 4191.59 10193.9 4207.51 10241 4207.51C10280.5 4207.51 10315.5 4193.5 10346.1 4165.49C10376.6 4136.21 10408.4 4093.56 10441.5 4037.54C10474.6 3981.52 10539.6 3865.66 10636.3 3689.96C10731.8 3884.76 10809.5 4019.71 10869.3 4094.83C10930.4 4169.95 10985.2 4207.51 11033.6 4207.51C11082 4207.51 11121.4 4192.23 11152 4161.67C11182.5 4131.12 11197.8 4095.47 11197.8 4054.73C11197.8 4022.9 11190.8 3996.16 11176.8 3974.52C11164.1 3951.6 11140.5 3920.4 11106.1 3880.94C11071.8 3841.47 11045 3808.36 11025.9 3781.63C11023.4 3777.81 10996 3748.52 10943.8 3693.78C10891.6 3639.03 10847.7 3595.11 10812 3562C11009.4 3532.72 11190.2 3485.61 11354.4 3420.68C11372.2 3413.04 11388.8 3395.85 11404.1 3369.12C11420.6 3341.11 11428.9 3314.37 11428.9 3288.91C11428.9 3244.34 11412.3 3207.42 11379.2 3178.14C11347.4 3147.58 11309.2 3132.3 11264.7 3132.3C11237.9 3132.3 11202.3 3141.22 11157.7 3159.04C11113.1 3176.86 11053.3 3204.88 10978.2 3243.07C10903.1 3281.27 10824.1 3319.46 10741.4 3357.66C10751.6 3274.9 10760.5 3201.69 10768.1 3138.03C10777 3073.1 10783.4 3018.35 10787.2 2973.79C10792.3 2927.96 10794.9 2897.4 10794.9 2882.12C10794.9 2826.1 10779.6 2781.54 10749 2748.44C10719.7 2714.06 10682.2 2696.87 10636.3 2696.87C10589.2 2696.87 10550.4 2714.06 10519.8 2748.44C10490.6 2781.54 10475.9 2821.65 10475.9 2868.75Z" fill="white"/>
<path d="M12129.3 2862.43C12204.8 2862.43 12275.6 2883.09 12333.9 2906.22C12333.3 2892.45 12333 2879.93 12333 2868.75C12333 2760.5 12368.8 2655.49 12444.7 2569.63L12444.9 2569.39L12445.1 2569.14C12528.3 2475.58 12641.3 2427 12763.3 2427C12885.1 2427 12996.8 2476.41 13078 2569.41C13162.3 2663 13191.7 2777.04 13191.7 2882.12C13191.7 2889.45 13191.5 2897.42 13191.1 2905.85C13245.5 2884.54 13316.5 2862.43 13391.7 2862.43C13503.3 2862.43 13607.2 2902.81 13689.2 2979.73C13778.1 3060.38 13825.8 3169.61 13825.8 3288.91C13825.8 3373.48 13798.4 3446.68 13764.4 3504.65C13735.7 3554.48 13681.9 3628.36 13587.7 3668.73L13584.2 3670.24L13580.6 3671.65C13537.8 3688.57 13494.2 3704.34 13449.8 3719C13480.9 3755.49 13512.1 3795.65 13535.5 3836.04C13579.8 3908.31 13594.7 3985.71 13594.7 4054.73C13594.7 4171.72 13547.6 4274.74 13469.8 4352.5C13382.4 4439.92 13271.2 4477.38 13160.6 4477.38C12978.9 4477.38 12853.4 4346.78 12787 4265.15L12786.1 4264.07L12785.2 4262.98C12778 4253.93 12770.8 4244.4 12763.4 4234.41C12732.7 4280.07 12698.4 4323.33 12659.8 4360.34L12657.6 4362.41L12655.4 4364.43C12577.8 4435.55 12478.6 4477.38 12368 4477.38C12253 4477.38 12143.8 4435.6 12058.8 4350.59L12055 4346.78L12051.3 4342.81C11985.4 4271.4 11933.9 4173.72 11933.9 4054.73C11933.9 3993.83 11944 3902.53 12003.3 3819.56L12004.4 3818L12005.5 3816.45C12029.3 3784.1 12053.4 3752.45 12077.8 3721.51C12029.5 3705.05 11980.7 3686.43 11931.4 3665.77L11923.1 3662.28L11915 3658.24C11827.2 3614.33 11778.9 3539.95 11755.6 3499.19L11751.8 3492.69L11748.5 3485.99C11722.3 3433.52 11699 3366.18 11699 3288.91C11699 3171.6 11744.5 3061.92 11833.6 2979.83H11833.6C11833.6 2979.78 11833.7 2979.72 11833.8 2979.66C11833.8 2979.62 11833.9 2979.57 11833.9 2979.53H11833.9C11912.9 2906.77 12014.4 2862.43 12129.3 2862.43ZM12602.9 2868.75C12602.9 2906.95 12608 2978.25 12618.2 3082.65C12629.7 3185.78 12643.7 3277.45 12660.2 3357.66C12569.8 3314.37 12489 3275.54 12417.7 3241.16C12347.6 3205.51 12289.7 3178.77 12243.9 3160.95C12198 3141.85 12159.9 3132.3 12129.3 3132.3C12087.3 3132.3 12049.7 3147.58 12016.6 3178.14C11984.8 3207.42 11968.9 3244.34 11968.9 3288.91C11968.9 3311.82 11975.9 3337.29 11989.9 3365.3C12005.2 3392.03 12020.4 3409.22 12035.7 3416.86C12129.9 3456.33 12219.1 3486.25 12303.1 3506.62C12387.1 3526.99 12482.6 3545.45 12589.6 3562C12462.2 3679.14 12340 3817.28 12222.9 3976.42C12210.1 3994.25 12203.8 4020.35 12203.8 4054.73C12203.8 4091.65 12219.1 4126.66 12249.6 4159.76C12281.4 4191.59 12320.9 4207.51 12368 4207.51C12407.5 4207.51 12442.5 4193.5 12473.1 4165.49C12503.6 4136.21 12535.4 4093.56 12568.5 4037.54C12601.6 3981.52 12666.6 3865.66 12763.3 3689.96C12858.8 3884.76 12936.5 4019.71 12996.3 4094.83C13057.4 4169.95 13112.2 4207.51 13160.6 4207.51C13209 4207.51 13248.4 4192.23 13279 4161.67C13309.5 4131.12 13324.8 4095.47 13324.8 4054.73C13324.8 4022.9 13317.8 3996.16 13303.8 3974.52C13291.1 3951.6 13267.5 3920.4 13233.1 3880.94C13198.8 3841.47 13172 3808.36 13152.9 3781.63C13150.4 3777.81 13123 3748.52 13070.8 3693.78C13018.6 3639.03 12974.7 3595.11 12939 3562C13136.4 3532.72 13317.2 3485.61 13481.4 3420.68C13499.2 3413.04 13515.8 3395.85 13531.1 3369.12C13547.6 3341.11 13555.9 3314.37 13555.9 3288.91C13555.9 3244.34 13539.3 3207.42 13506.2 3178.14C13474.4 3147.58 13436.2 3132.3 13391.7 3132.3C13364.9 3132.3 13329.3 3141.22 13284.7 3159.04C13240.1 3176.86 13180.3 3204.88 13105.2 3243.07C13030.1 3281.27 12951.1 3319.46 12868.4 3357.66C12878.6 3274.9 12887.5 3201.69 12895.1 3138.03C12904 3073.1 12910.4 3018.35 12914.2 2973.79C12919.3 2927.96 12921.9 2897.4 12921.9 2882.12C12921.9 2826.1 12906.6 2781.54 12876 2748.44C12846.7 2714.06 12809.2 2696.87 12763.3 2696.87C12716.2 2696.87 12677.4 2714.06 12646.8 2748.44C12617.6 2781.54 12602.9 2821.65 12602.9 2868.75Z" fill="white"/>
<path d="M14256.3 2862.43C14331.8 2862.43 14402.6 2883.09 14460.9 2906.22C14460.3 2892.45 14460 2879.93 14460 2868.75C14460 2760.5 14495.8 2655.49 14571.7 2569.63L14571.9 2569.39L14572.1 2569.14C14655.3 2475.58 14768.3 2427 14890.3 2427C15012.1 2427 15123.8 2476.41 15205 2569.41C15289.3 2663 15318.7 2777.04 15318.7 2882.12C15318.7 2889.45 15318.5 2897.42 15318.1 2905.85C15372.5 2884.54 15443.5 2862.43 15518.7 2862.43C15630.3 2862.43 15734.2 2902.81 15816.2 2979.73C15905.1 3060.38 15952.8 3169.61 15952.8 3288.91C15952.8 3373.48 15925.4 3446.68 15891.4 3504.65C15862.7 3554.48 15808.9 3628.36 15714.7 3668.73L15711.2 3670.24L15707.6 3671.65C15664.8 3688.57 15621.2 3704.34 15576.8 3719C15607.9 3755.49 15639.1 3795.65 15662.5 3836.04C15706.8 3908.31 15721.7 3985.71 15721.7 4054.73C15721.7 4171.72 15674.6 4274.74 15596.8 4352.5C15509.4 4439.92 15398.2 4477.38 15287.6 4477.38C15105.9 4477.38 14980.4 4346.78 14914 4265.15L14913.1 4264.07L14912.2 4262.98C14905 4253.93 14897.8 4244.4 14890.4 4234.41C14859.7 4280.07 14825.4 4323.33 14786.8 4360.34L14784.6 4362.41L14782.4 4364.43C14704.8 4435.55 14605.6 4477.38 14495 4477.38C14380 4477.38 14270.8 4435.6 14185.8 4350.59L14182 4346.78L14178.3 4342.81C14112.4 4271.4 14060.9 4173.72 14060.9 4054.73C14060.9 3993.83 14071 3902.53 14130.3 3819.56L14131.4 3818L14132.5 3816.45C14156.3 3784.1 14180.4 3752.45 14204.8 3721.51C14156.5 3705.05 14107.7 3686.43 14058.4 3665.77L14050.1 3662.28L14042 3658.24C13954.2 3614.33 13905.9 3539.95 13882.6 3499.19L13878.8 3492.69L13875.5 3485.99C13849.3 3433.52 13826 3366.18 13826 3288.91C13826 3171.6 13871.5 3061.92 13960.6 2979.83H13960.6C13960.6 2979.78 13960.7 2979.72 13960.8 2979.66C13960.8 2979.62 13960.9 2979.57 13960.9 2979.53H13960.9C14039.9 2906.77 14141.4 2862.43 14256.3 2862.43ZM14729.9 2868.75C14729.9 2906.95 14735 2978.25 14745.2 3082.65C14756.7 3185.78 14770.7 3277.45 14787.2 3357.66C14696.8 3314.37 14616 3275.54 14544.7 3241.16C14474.6 3205.51 14416.7 3178.77 14370.9 3160.95C14325 3141.85 14286.9 3132.3 14256.3 3132.3C14214.3 3132.3 14176.7 3147.58 14143.6 3178.14C14111.8 3207.42 14095.9 3244.34 14095.9 3288.91C14095.9 3311.82 14102.9 3337.29 14116.9 3365.3C14132.2 3392.03 14147.4 3409.22 14162.7 3416.86C14256.9 3456.33 14346.1 3486.25 14430.1 3506.62C14514.1 3526.99 14609.6 3545.45 14716.6 3562C14589.2 3679.14 14467 3817.28 14349.9 3976.42C14337.1 3994.25 14330.8 4020.35 14330.8 4054.73C14330.8 4091.65 14346.1 4126.66 14376.6 4159.76C14408.4 4191.59 14447.9 4207.51 14495 4207.51C14534.5 4207.51 14569.5 4193.5 14600.1 4165.49C14630.6 4136.21 14662.4 4093.56 14695.5 4037.54C14728.6 3981.52 14793.6 3865.66 14890.3 3689.96C14985.8 3884.76 15063.5 4019.71 15123.3 4094.83C15184.4 4169.95 15239.2 4207.51 15287.6 4207.51C15336 4207.51 15375.4 4192.23 15406 4161.67C15436.5 4131.12 15451.8 4095.47 15451.8 4054.73C15451.8 4022.9 15444.8 3996.16 15430.8 3974.52C15418.1 3951.6 15394.5 3920.4 15360.1 3880.94C15325.8 3841.47 15299 3808.36 15279.9 3781.63C15277.4 3777.81 15250 3748.52 15197.8 3693.78C15145.6 3639.03 15101.7 3595.11 15066 3562C15263.4 3532.72 15444.2 3485.61 15608.4 3420.68C15626.2 3413.04 15642.8 3395.85 15658.1 3369.12C15674.6 3341.11 15682.9 3314.37 15682.9 3288.91C15682.9 3244.34 15666.3 3207.42 15633.2 3178.14C15601.4 3147.58 15563.2 3132.3 15518.7 3132.3C15491.9 3132.3 15456.3 3141.22 15411.7 3159.04C15367.1 3176.86 15307.3 3204.88 15232.2 3243.07C15157.1 3281.27 15078.1 3319.46 14995.4 3357.66C15005.6 3274.9 15014.5 3201.69 15022.1 3138.03C15031 3073.1 15037.4 3018.35 15041.2 2973.79C15046.3 2927.96 15048.9 2897.4 15048.9 2882.12C15048.9 2826.1 15033.6 2781.54 15003 2748.44C14973.7 2714.06 14936.2 2696.87 14890.3 2696.87C14843.2 2696.87 14804.4 2714.06 14773.8 2748.44C14744.6 2781.54 14729.9 2821.65 14729.9 2868.75Z" fill="white"/>
<path d="M14995.4 5893.66C15078.1 5855.46 15157.1 5817.27 15232.2 5779.07C15307.3 5740.88 15367.1 5712.87 15411.7 5695.04C15456.3 5677.22 15491.9 5668.3 15518.7 5668.3C15563.2 5668.3 15601.4 5683.58 15633.2 5714.14C15666.3 5743.42 15682.9 5780.34 15682.9 5824.91C15682.9 5850.37 15674.6 5877.11 15658.1 5905.12C15642.8 5931.85 15626.2 5949.04 15608.4 5956.68C15444.2 6021.61 15263.4 6068.72 15066 6098C15101.7 6131.11 15145.6 6175.03 15197.8 6229.78C15250 6284.53 15277.4 6313.81 15279.9 6317.63C15299 6344.37 15325.8 6377.47 15360.1 6416.94C15394.5 6456.41 15418.1 6487.6 15430.8 6510.52C15444.8 6532.16 15451.8 6558.9 15451.8 6590.73C15451.8 6631.47 15436.5 6667.12 15406 6697.67C15375.4 6728.23 15336 6743.51 15287.6 6743.51C15239.2 6743.51 15184.4 6705.95 15123.3 6630.83C15063.5 6555.71 14985.8 6420.76 14890.3 6225.96C14793.6 6401.66 14728.6 6517.52 14695.5 6573.54C14662.4 6629.56 14630.6 6672.21 14600.1 6701.49C14569.5 6729.5 14534.5 6743.51 14495 6743.51C14447.9 6743.51 14408.4 6727.59 14376.6 6695.76C14346.1 6662.66 14330.8 6627.65 14330.8 6590.73C14330.8 6556.35 14337.1 6530.25 14349.9 6512.43C14467 6353.28 14589.2 6215.14 14716.6 6098C14609.6 6081.45 14514.1 6062.99 14430.1 6042.62C14346.1 6022.25 14256.9 5992.33 14162.7 5952.86C14147.4 5945.22 14132.2 5928.03 14116.9 5901.3C14102.9 5873.29 14095.9 5847.82 14095.9 5824.91C14095.9 5780.34 14111.8 5743.42 14143.6 5714.14C14176.7 5683.58 14214.3 5668.3 14256.3 5668.3C14286.9 5668.3 14325 5677.85 14370.9 5696.95C14416.7 5714.78 14474.6 5741.51 14544.7 5777.16C14616 5811.54 14696.8 5850.37 14787.2 5893.66C14770.7 5813.45 14756.7 5721.78 14745.2 5618.65C14735 5514.25 14729.9 5442.95 14729.9 5404.75C14729.9 5357.65 14744.6 5317.54 14773.8 5284.44C14804.4 5250.06 14843.2 5232.88 14890.3 5232.88C14936.2 5232.88 14973.7 5250.06 15003 5284.44C15033.6 5317.54 15048.9 5362.1 15048.9 5418.12C15048.9 5433.4 15046.3 5463.96 15041.2 5509.79C15037.4 5554.35 15031 5609.1 15022.1 5674.03C15014.5 5737.69 15005.6 5810.9 14995.4 5893.66Z" fill="black"/>
<path d="M17122.4 5893.66C17205.1 5855.46 17284.1 5817.27 17359.2 5779.07C17434.3 5740.88 17494.1 5712.87 17538.7 5695.04C17583.3 5677.22 17618.9 5668.3 17645.7 5668.3C17690.2 5668.3 17728.4 5683.58 17760.2 5714.14C17793.3 5743.42 17809.9 5780.34 17809.9 5824.91C17809.9 5850.37 17801.6 5877.11 17785.1 5905.12C17769.8 5931.85 17753.2 5949.04 17735.4 5956.68C17571.2 6021.61 17390.4 6068.72 17193 6098C17228.7 6131.11 17272.6 6175.03 17324.8 6229.78C17377 6284.53 17404.4 6313.81 17406.9 6317.63C17426 6344.37 17452.8 6377.47 17487.1 6416.94C17521.5 6456.41 17545.1 6487.6 17557.8 6510.52C17571.8 6532.16 17578.8 6558.9 17578.8 6590.73C17578.8 6631.47 17563.5 6667.12 17533 6697.67C17502.4 6728.23 17463 6743.51 17414.6 6743.51C17366.2 6743.51 17311.4 6705.95 17250.3 6630.83C17190.5 6555.71 17112.8 6420.76 17017.3 6225.96C16920.6 6401.66 16855.6 6517.52 16822.5 6573.54C16789.4 6629.56 16757.6 6672.21 16727.1 6701.49C16696.5 6729.5 16661.5 6743.51 16622 6743.51C16574.9 6743.51 16535.4 6727.59 16503.6 6695.76C16473.1 6662.66 16457.8 6627.65 16457.8 6590.73C16457.8 6556.35 16464.1 6530.25 16476.9 6512.43C16594 6353.28 16716.2 6215.14 16843.6 6098C16736.6 6081.45 16641.1 6062.99 16557.1 6042.62C16473.1 6022.25 16383.9 5992.33 16289.7 5952.86C16274.4 5945.22 16259.2 5928.03 16243.9 5901.3C16229.9 5873.29 16222.9 5847.82 16222.9 5824.91C16222.9 5780.34 16238.8 5743.42 16270.6 5714.14C16303.7 5683.58 16341.3 5668.3 16383.3 5668.3C16413.9 5668.3 16452 5677.85 16497.9 5696.95C16543.7 5714.78 16601.6 5741.51 16671.7 5777.16C16743 5811.54 16823.8 5850.37 16914.2 5893.66C16897.7 5813.45 16883.7 5721.78 16872.2 5618.65C16862 5514.25 16856.9 5442.95 16856.9 5404.75C16856.9 5357.65 16871.6 5317.54 16900.8 5284.44C16931.4 5250.06 16970.2 5232.88 17017.3 5232.88C17063.2 5232.88 17100.7 5250.06 17130 5284.44C17160.6 5317.54 17175.9 5362.1 17175.9 5418.12C17175.9 5433.4 17173.3 5463.96 17168.2 5509.79C17164.4 5554.35 17158 5609.1 17149.1 5674.03C17141.5 5737.69 17132.6 5810.9 17122.4 5893.66Z" fill="black"/>
<path d="M8614.38 5893.66C8697.14 5855.46 8776.07 5817.27 8851.19 5779.07C8926.31 5740.88 8986.15 5712.87 9030.71 5695.04C9075.27 5677.22 9110.92 5668.3 9137.66 5668.3C9182.22 5668.3 9220.42 5683.58 9252.25 5714.14C9285.35 5743.42 9301.9 5780.34 9301.9 5824.91C9301.9 5850.37 9293.62 5877.11 9277.07 5905.12C9261.79 5931.85 9245.24 5949.04 9227.42 5956.68C9063.18 6021.61 8882.39 6068.72 8685.04 6098C8720.69 6131.11 8764.62 6175.03 8816.82 6229.78C8869.02 6284.53 8896.39 6313.81 8898.94 6317.63C8918.03 6344.37 8944.77 6377.47 8979.15 6416.94C9013.52 6456.41 9037.08 6487.6 9049.81 6510.52C9063.81 6532.16 9070.82 6558.9 9070.82 6590.73C9070.82 6631.47 9055.54 6667.12 9024.98 6697.67C8994.43 6728.23 8954.96 6743.51 8906.58 6743.51C8858.19 6743.51 8803.45 6705.95 8742.33 6630.83C8682.5 6555.71 8604.83 6420.76 8509.34 6225.96C8412.58 6401.66 8347.65 6517.52 8314.54 6573.54C8281.44 6629.56 8249.61 6672.21 8219.06 6701.49C8188.5 6729.5 8153.49 6743.51 8114.02 6743.51C8066.91 6743.51 8027.44 6727.59 7995.61 6695.76C7965.06 6662.66 7949.78 6627.65 7949.78 6590.73C7949.78 6556.35 7956.14 6530.25 7968.88 6512.43C8086.01 6353.28 8208.23 6215.14 8335.55 6098C8228.6 6081.45 8133.12 6062.99 8049.09 6042.62C7965.06 6022.25 7875.93 5992.33 7781.72 5952.86C7766.44 5945.22 7751.16 5928.03 7735.88 5901.3C7721.88 5873.29 7714.88 5847.82 7714.88 5824.91C7714.88 5780.34 7730.79 5743.42 7762.62 5714.14C7795.72 5683.58 7833.28 5668.3 7875.3 5668.3C7905.85 5668.3 7944.05 5677.85 7989.88 5696.95C8035.72 5714.78 8093.65 5741.51 8163.67 5777.16C8234.97 5811.54 8315.82 5850.37 8406.21 5893.66C8389.66 5813.45 8375.66 5721.78 8364.2 5618.65C8354.01 5514.25 8348.92 5442.95 8348.92 5404.75C8348.92 5357.65 8363.56 5317.54 8392.85 5284.44C8423.4 5250.06 8462.23 5232.88 8509.34 5232.88C8555.18 5232.88 8592.74 5250.06 8622.02 5284.44C8652.58 5317.54 8667.85 5362.1 8667.85 5418.12C8667.85 5433.4 8665.31 5463.96 8660.21 5509.79C8656.4 5554.35 8650.03 5609.1 8641.12 5674.03C8633.48 5737.69 8624.57 5810.9 8614.38 5893.66Z" fill="black"/>
<path d="M10741.4 5893.66C10824.1 5855.46 10903.1 5817.27 10978.2 5779.07C11053.3 5740.88 11113.1 5712.87 11157.7 5695.04C11202.3 5677.22 11237.9 5668.3 11264.7 5668.3C11309.2 5668.3 11347.4 5683.58 11379.2 5714.14C11412.3 5743.42 11428.9 5780.34 11428.9 5824.91C11428.9 5850.37 11420.6 5877.11 11404.1 5905.12C11388.8 5931.85 11372.2 5949.04 11354.4 5956.68C11190.2 6021.61 11009.4 6068.72 10812 6098C10847.7 6131.11 10891.6 6175.03 10943.8 6229.78C10996 6284.53 11023.4 6313.81 11025.9 6317.63C11045 6344.37 11071.8 6377.47 11106.1 6416.94C11140.5 6456.41 11164.1 6487.6 11176.8 6510.52C11190.8 6532.16 11197.8 6558.9 11197.8 6590.73C11197.8 6631.47 11182.5 6667.12 11152 6697.67C11121.4 6728.23 11082 6743.51 11033.6 6743.51C10985.2 6743.51 10930.4 6705.95 10869.3 6630.83C10809.5 6555.71 10731.8 6420.76 10636.3 6225.96C10539.6 6401.66 10474.6 6517.52 10441.5 6573.54C10408.4 6629.56 10376.6 6672.21 10346.1 6701.49C10315.5 6729.5 10280.5 6743.51 10241 6743.51C10193.9 6743.51 10154.4 6727.59 10122.6 6695.76C10092.1 6662.66 10076.8 6627.65 10076.8 6590.73C10076.8 6556.35 10083.1 6530.25 10095.9 6512.43C10213 6353.28 10335.2 6215.14 10462.6 6098C10355.6 6081.45 10260.1 6062.99 10176.1 6042.62C10092.1 6022.25 10002.9 5992.33 9908.72 5952.86C9893.44 5945.22 9878.16 5928.03 9862.88 5901.3C9848.88 5873.29 9841.88 5847.82 9841.88 5824.91C9841.88 5780.34 9857.79 5743.42 9889.62 5714.14C9922.72 5683.58 9960.28 5668.3 10002.3 5668.3C10032.9 5668.3 10071 5677.85 10116.9 5696.95C10162.7 5714.78 10220.6 5741.51 10290.7 5777.16C10362 5811.54 10442.8 5850.37 10533.2 5893.66C10516.7 5813.45 10502.7 5721.78 10491.2 5618.65C10481 5514.25 10475.9 5442.95 10475.9 5404.75C10475.9 5357.65 10490.6 5317.54 10519.8 5284.44C10550.4 5250.06 10589.2 5232.88 10636.3 5232.88C10682.2 5232.88 10719.7 5250.06 10749 5284.44C10779.6 5317.54 10794.9 5362.1 10794.9 5418.12C10794.9 5433.4 10792.3 5463.96 10787.2 5509.79C10783.4 5554.35 10777 5609.1 10768.1 5674.03C10760.5 5737.69 10751.6 5810.9 10741.4 5893.66Z" fill="black"/>
<path d="M7875.3 5398.43C7950.79 5398.43 8021.63 5419.09 8079.88 5442.22C8079.33 5428.45 8079.05 5415.93 8079.05 5404.75C8079.05 5296.5 8114.75 5191.49 8190.71 5105.63L8190.92 5105.39L8191.14 5105.14C8274.31 5011.58 8387.28 4963 8509.34 4963C8631.13 4963 8742.82 5012.41 8823.98 5105.41C8908.26 5199 8937.73 5313.04 8937.73 5418.12C8937.73 5425.45 8937.5 5433.42 8937.1 5441.85C8991.49 5420.54 9062.48 5398.43 9137.66 5398.43C9249.33 5398.43 9353.17 5438.81 9435.22 5515.73C9524.1 5596.38 9571.77 5705.61 9571.77 5824.91C9571.77 5909.48 9544.39 5982.68 9510.45 6040.65C9481.72 6090.48 9427.94 6164.36 9333.73 6204.73L9330.2 6206.24L9326.64 6207.65C9283.85 6224.57 9240.24 6240.34 9195.83 6255C9226.87 6291.49 9258.08 6331.65 9281.51 6372.04C9325.78 6444.31 9340.69 6521.71 9340.69 6590.73C9340.69 6707.72 9293.57 6810.74 9215.81 6888.5C9128.39 6975.92 9017.18 7013.38 8906.58 7013.38C8724.89 7013.38 8599.41 6882.78 8532.99 6801.15L8532.11 6800.07L8531.25 6798.98C8524.04 6789.93 8516.76 6780.4 8509.4 6770.41C8478.69 6816.07 8444.41 6859.33 8405.78 6896.34L8403.62 6898.41L8401.42 6900.43C8323.83 6971.55 8224.64 7013.38 8114.02 7013.38C7999.04 7013.38 7889.79 6971.6 7804.78 6886.59L7800.97 6882.78L7797.31 6878.81C7731.39 6807.4 7679.9 6709.72 7679.9 6590.73C7679.9 6529.83 7690.01 6438.53 7749.27 6355.56L7750.38 6354L7751.52 6352.45C7775.34 6320.1 7799.42 6288.45 7823.78 6257.51C7775.53 6241.05 7726.74 6222.43 7677.44 6201.77L7669.11 6198.28L7661.02 6194.24C7573.19 6150.33 7524.86 6075.95 7501.57 6035.19L7497.85 6028.69L7494.5 6021.99C7468.27 5969.52 7445 5902.18 7445 5824.91C7445 5707.6 7490.53 5597.92 7579.57 5515.83H7579.57C7579.63 5515.78 7579.69 5515.72 7579.76 5515.66C7579.8 5515.62 7579.85 5515.57 7579.9 5515.53H7579.9C7658.87 5442.77 7760.42 5398.43 7875.3 5398.43ZM8348.92 5404.75C8348.92 5442.95 8354.01 5514.25 8364.2 5618.65C8375.66 5721.78 8389.66 5813.45 8406.21 5893.66C8315.82 5850.37 8234.97 5811.54 8163.67 5777.16C8093.65 5741.51 8035.72 5714.77 7989.88 5696.95C7944.05 5677.85 7905.85 5668.3 7875.3 5668.3C7833.28 5668.3 7795.72 5683.58 7762.62 5714.14C7730.79 5743.42 7714.87 5780.34 7714.87 5824.91C7714.87 5847.82 7721.88 5873.29 7735.88 5901.3C7751.16 5928.03 7766.44 5945.22 7781.72 5952.86C7875.93 5992.33 7965.06 6022.25 8049.09 6042.62C8133.12 6062.99 8228.6 6081.45 8335.55 6098C8208.23 6215.14 8086.01 6353.28 7968.87 6512.42C7956.14 6530.25 7949.78 6556.35 7949.78 6590.73C7949.78 6627.65 7965.06 6662.66 7995.61 6695.76C8027.44 6727.59 8066.91 6743.51 8114.02 6743.51C8153.49 6743.51 8188.5 6729.5 8219.06 6701.49C8249.61 6672.21 8281.44 6629.56 8314.54 6573.54C8347.65 6517.52 8412.58 6401.66 8509.34 6225.96C8604.83 6420.76 8682.49 6555.71 8742.33 6630.83C8803.45 6705.95 8858.19 6743.51 8906.58 6743.51C8954.96 6743.51 8994.42 6728.23 9024.98 6697.67C9055.54 6667.12 9070.82 6631.47 9070.82 6590.73C9070.82 6558.9 9063.81 6532.16 9049.81 6510.52C9037.08 6487.6 9013.52 6456.4 8979.15 6416.94C8944.77 6377.47 8918.03 6344.36 8898.94 6317.63C8896.39 6313.81 8869.02 6284.52 8816.82 6229.78C8764.62 6175.03 8720.69 6131.11 8685.04 6098C8882.38 6068.72 9063.18 6021.61 9227.42 5956.68C9245.24 5949.04 9261.79 5931.85 9277.07 5905.12C9293.62 5877.11 9301.9 5850.37 9301.9 5824.91C9301.9 5780.34 9285.35 5743.42 9252.24 5714.14C9220.42 5683.58 9182.22 5668.3 9137.66 5668.3C9110.92 5668.3 9075.27 5677.22 9030.71 5695.04C8986.15 5712.86 8926.31 5740.88 8851.19 5779.07C8776.07 5817.27 8697.14 5855.46 8614.38 5893.66C8624.56 5810.9 8633.48 5737.69 8641.12 5674.03C8650.03 5609.1 8656.39 5554.35 8660.21 5509.79C8665.31 5463.96 8667.85 5433.4 8667.85 5418.12C8667.85 5362.1 8652.57 5317.54 8622.02 5284.44C8592.74 5250.06 8555.18 5232.87 8509.34 5232.87C8462.23 5232.87 8423.4 5250.06 8392.85 5284.44C8363.56 5317.54 8348.92 5357.65 8348.92 5404.75Z" fill="white"/>
<path d="M10002.3 5398.43C10077.8 5398.43 10148.6 5419.09 10206.9 5442.22C10206.3 5428.45 10206 5415.93 10206 5404.75C10206 5296.5 10241.8 5191.49 10317.7 5105.63L10317.9 5105.39L10318.1 5105.14C10401.3 5011.58 10514.3 4963 10636.3 4963C10758.1 4963 10869.8 5012.41 10951 5105.41C11035.3 5199 11064.7 5313.04 11064.7 5418.12C11064.7 5425.45 11064.5 5433.42 11064.1 5441.85C11118.5 5420.54 11189.5 5398.43 11264.7 5398.43C11376.3 5398.43 11480.2 5438.81 11562.2 5515.73C11651.1 5596.38 11698.8 5705.61 11698.8 5824.91C11698.8 5909.48 11671.4 5982.68 11637.4 6040.65C11608.7 6090.48 11554.9 6164.36 11460.7 6204.73L11457.2 6206.24L11453.6 6207.65C11410.8 6224.57 11367.2 6240.34 11322.8 6255C11353.9 6291.49 11385.1 6331.65 11408.5 6372.04C11452.8 6444.31 11467.7 6521.71 11467.7 6590.73C11467.7 6707.72 11420.6 6810.74 11342.8 6888.5C11255.4 6975.92 11144.2 7013.38 11033.6 7013.38C10851.9 7013.38 10726.4 6882.78 10660 6801.15L10659.1 6800.07L10658.2 6798.98C10651 6789.93 10643.8 6780.4 10636.4 6770.41C10605.7 6816.07 10571.4 6859.33 10532.8 6896.34L10530.6 6898.41L10528.4 6900.43C10450.8 6971.55 10351.6 7013.38 10241 7013.38C10126 7013.38 10016.8 6971.6 9931.78 6886.59L9927.97 6882.78L9924.31 6878.81C9858.39 6807.4 9806.9 6709.72 9806.9 6590.73C9806.9 6529.83 9817.01 6438.53 9876.27 6355.56L9877.38 6354L9878.52 6352.45C9902.34 6320.1 9926.42 6288.45 9950.78 6257.51C9902.53 6241.05 9853.74 6222.43 9804.44 6201.77L9796.11 6198.28L9788.02 6194.24C9700.19 6150.33 9651.86 6075.95 9628.57 6035.19L9624.85 6028.69L9621.5 6021.99C9595.27 5969.52 9572 5902.18 9572 5824.91C9572 5707.6 9617.53 5597.92 9706.57 5515.83H9706.57C9706.63 5515.78 9706.69 5515.72 9706.76 5515.66C9706.8 5515.62 9706.85 5515.57 9706.9 5515.53H9706.9C9785.87 5442.77 9887.42 5398.43 10002.3 5398.43ZM10475.9 5404.75C10475.9 5442.95 10481 5514.25 10491.2 5618.65C10502.7 5721.78 10516.7 5813.45 10533.2 5893.66C10442.8 5850.37 10362 5811.54 10290.7 5777.16C10220.6 5741.51 10162.7 5714.77 10116.9 5696.95C10071 5677.85 10032.9 5668.3 10002.3 5668.3C9960.28 5668.3 9922.72 5683.58 9889.62 5714.14C9857.79 5743.42 9841.87 5780.34 9841.87 5824.91C9841.87 5847.82 9848.88 5873.29 9862.88 5901.3C9878.16 5928.03 9893.44 5945.22 9908.72 5952.86C10002.9 5992.33 10092.1 6022.25 10176.1 6042.62C10260.1 6062.99 10355.6 6081.45 10462.6 6098C10335.2 6215.14 10213 6353.28 10095.9 6512.42C10083.1 6530.25 10076.8 6556.35 10076.8 6590.73C10076.8 6627.65 10092.1 6662.66 10122.6 6695.76C10154.4 6727.59 10193.9 6743.51 10241 6743.51C10280.5 6743.51 10315.5 6729.5 10346.1 6701.49C10376.6 6672.21 10408.4 6629.56 10441.5 6573.54C10474.6 6517.52 10539.6 6401.66 10636.3 6225.96C10731.8 6420.76 10809.5 6555.71 10869.3 6630.83C10930.4 6705.95 10985.2 6743.51 11033.6 6743.51C11082 6743.51 11121.4 6728.23 11152 6697.67C11182.5 6667.12 11197.8 6631.47 11197.8 6590.73C11197.8 6558.9 11190.8 6532.16 11176.8 6510.52C11164.1 6487.6 11140.5 6456.4 11106.1 6416.94C11071.8 6377.47 11045 6344.36 11025.9 6317.63C11023.4 6313.81 10996 6284.52 10943.8 6229.78C10891.6 6175.03 10847.7 6131.11 10812 6098C11009.4 6068.72 11190.2 6021.61 11354.4 5956.68C11372.2 5949.04 11388.8 5931.85 11404.1 5905.12C11420.6 5877.11 11428.9 5850.37 11428.9 5824.91C11428.9 5780.34 11412.3 5743.42 11379.2 5714.14C11347.4 5683.58 11309.2 5668.3 11264.7 5668.3C11237.9 5668.3 11202.3 5677.22 11157.7 5695.04C11113.1 5712.86 11053.3 5740.88 10978.2 5779.07C10903.1 5817.27 10824.1 5855.46 10741.4 5893.66C10751.6 5810.9 10760.5 5737.69 10768.1 5674.03C10777 5609.1 10783.4 5554.35 10787.2 5509.79C10792.3 5463.96 10794.9 5433.4 10794.9 5418.12C10794.9 5362.1 10779.6 5317.54 10749 5284.44C10719.7 5250.06 10682.2 5232.87 10636.3 5232.87C10589.2 5232.87 10550.4 5250.06 10519.8 5284.44C10490.6 5317.54 10475.9 5357.65 10475.9 5404.75Z" fill="white"/>
<path d="M12129.3 5398.43C12204.8 5398.43 12275.6 5419.09 12333.9 5442.22C12333.3 5428.45 12333 5415.93 12333 5404.75C12333 5296.5 12368.8 5191.49 12444.7 5105.63L12444.9 5105.39L12445.1 5105.14C12528.3 5011.58 12641.3 4963 12763.3 4963C12885.1 4963 12996.8 5012.41 13078 5105.41C13162.3 5199 13191.7 5313.04 13191.7 5418.12C13191.7 5425.45 13191.5 5433.42 13191.1 5441.85C13245.5 5420.54 13316.5 5398.43 13391.7 5398.43C13503.3 5398.43 13607.2 5438.81 13689.2 5515.73C13778.1 5596.38 13825.8 5705.61 13825.8 5824.91C13825.8 5909.48 13798.4 5982.68 13764.4 6040.65C13735.7 6090.48 13681.9 6164.36 13587.7 6204.73L13584.2 6206.24L13580.6 6207.65C13537.8 6224.57 13494.2 6240.34 13449.8 6255C13480.9 6291.49 13512.1 6331.65 13535.5 6372.04C13579.8 6444.31 13594.7 6521.71 13594.7 6590.73C13594.7 6707.72 13547.6 6810.74 13469.8 6888.5C13382.4 6975.92 13271.2 7013.38 13160.6 7013.38C12978.9 7013.38 12853.4 6882.78 12787 6801.15L12786.1 6800.07L12785.2 6798.98C12778 6789.93 12770.8 6780.4 12763.4 6770.41C12732.7 6816.07 12698.4 6859.33 12659.8 6896.34L12657.6 6898.41L12655.4 6900.43C12577.8 6971.55 12478.6 7013.38 12368 7013.38C12253 7013.38 12143.8 6971.6 12058.8 6886.59L12055 6882.78L12051.3 6878.81C11985.4 6807.4 11933.9 6709.72 11933.9 6590.73C11933.9 6529.83 11944 6438.53 12003.3 6355.56L12004.4 6354L12005.5 6352.45C12029.3 6320.1 12053.4 6288.45 12077.8 6257.51C12029.5 6241.05 11980.7 6222.43 11931.4 6201.77L11923.1 6198.28L11915 6194.24C11827.2 6150.33 11778.9 6075.95 11755.6 6035.19L11751.8 6028.69L11748.5 6021.99C11722.3 5969.52 11699 5902.18 11699 5824.91C11699 5707.6 11744.5 5597.92 11833.6 5515.83H11833.6C11833.6 5515.78 11833.7 5515.72 11833.8 5515.66C11833.8 5515.62 11833.9 5515.57 11833.9 5515.53H11833.9C11912.9 5442.77 12014.4 5398.43 12129.3 5398.43ZM12602.9 5404.75C12602.9 5442.95 12608 5514.25 12618.2 5618.65C12629.7 5721.78 12643.7 5813.45 12660.2 5893.66C12569.8 5850.37 12489 5811.54 12417.7 5777.16C12347.6 5741.51 12289.7 5714.77 12243.9 5696.95C12198 5677.85 12159.9 5668.3 12129.3 5668.3C12087.3 5668.3 12049.7 5683.58 12016.6 5714.14C11984.8 5743.42 11968.9 5780.34 11968.9 5824.91C11968.9 5847.82 11975.9 5873.29 11989.9 5901.3C12005.2 5928.03 12020.4 5945.22 12035.7 5952.86C12129.9 5992.33 12219.1 6022.25 12303.1 6042.62C12387.1 6062.99 12482.6 6081.45 12589.6 6098C12462.2 6215.14 12340 6353.28 12222.9 6512.42C12210.1 6530.25 12203.8 6556.35 12203.8 6590.73C12203.8 6627.65 12219.1 6662.66 12249.6 6695.76C12281.4 6727.59 12320.9 6743.51 12368 6743.51C12407.5 6743.51 12442.5 6729.5 12473.1 6701.49C12503.6 6672.21 12535.4 6629.56 12568.5 6573.54C12601.6 6517.52 12666.6 6401.66 12763.3 6225.96C12858.8 6420.76 12936.5 6555.71 12996.3 6630.83C13057.4 6705.95 13112.2 6743.51 13160.6 6743.51C13209 6743.51 13248.4 6728.23 13279 6697.67C13309.5 6667.12 13324.8 6631.47 13324.8 6590.73C13324.8 6558.9 13317.8 6532.16 13303.8 6510.52C13291.1 6487.6 13267.5 6456.4 13233.1 6416.94C13198.8 6377.47 13172 6344.36 13152.9 6317.63C13150.4 6313.81 13123 6284.52 13070.8 6229.78C13018.6 6175.03 12974.7 6131.11 12939 6098C13136.4 6068.72 13317.2 6021.61 13481.4 5956.68C13499.2 5949.04 13515.8 5931.85 13531.1 5905.12C13547.6 5877.11 13555.9 5850.37 13555.9 5824.91C13555.9 5780.34 13539.3 5743.42 13506.2 5714.14C13474.4 5683.58 13436.2 5668.3 13391.7 5668.3C13364.9 5668.3 13329.3 5677.22 13284.7 5695.04C13240.1 5712.86 13180.3 5740.88 13105.2 5779.07C13030.1 5817.27 12951.1 5855.46 12868.4 5893.66C12878.6 5810.9 12887.5 5737.69 12895.1 5674.03C12904 5609.1 12910.4 5554.35 12914.2 5509.79C12919.3 5463.96 12921.9 5433.4 12921.9 5418.12C12921.9 5362.1 12906.6 5317.54 12876 5284.44C12846.7 5250.06 12809.2 5232.87 12763.3 5232.87C12716.2 5232.87 12677.4 5250.06 12646.8 5284.44C12617.6 5317.54 12602.9 5357.65 12602.9 5404.75Z" fill="white"/>
<path d="M14256.3 5398.43C14331.8 5398.43 14402.6 5419.09 14460.9 5442.22C14460.3 5428.45 14460 5415.93 14460 5404.75C14460 5296.5 14495.8 5191.49 14571.7 5105.63L14571.9 5105.39L14572.1 5105.14C14655.3 5011.58 14768.3 4963 14890.3 4963C15012.1 4963 15123.8 5012.41 15205 5105.41C15289.3 5199 15318.7 5313.04 15318.7 5418.12C15318.7 5425.45 15318.5 5433.42 15318.1 5441.85C15372.5 5420.54 15443.5 5398.43 15518.7 5398.43C15630.3 5398.43 15734.2 5438.81 15816.2 5515.73C15905.1 5596.38 15952.8 5705.61 15952.8 5824.91C15952.8 5909.48 15925.4 5982.68 15891.4 6040.65C15862.7 6090.48 15808.9 6164.36 15714.7 6204.73L15711.2 6206.24L15707.6 6207.65C15664.8 6224.57 15621.2 6240.34 15576.8 6255C15607.9 6291.49 15639.1 6331.65 15662.5 6372.04C15706.8 6444.31 15721.7 6521.71 15721.7 6590.73C15721.7 6707.72 15674.6 6810.74 15596.8 6888.5C15509.4 6975.92 15398.2 7013.38 15287.6 7013.38C15105.9 7013.38 14980.4 6882.78 14914 6801.15L14913.1 6800.07L14912.2 6798.98C14905 6789.93 14897.8 6780.4 14890.4 6770.41C14859.7 6816.07 14825.4 6859.33 14786.8 6896.34L14784.6 6898.41L14782.4 6900.43C14704.8 6971.55 14605.6 7013.38 14495 7013.38C14380 7013.38 14270.8 6971.6 14185.8 6886.59L14182 6882.78L14178.3 6878.81C14112.4 6807.4 14060.9 6709.72 14060.9 6590.73C14060.9 6529.83 14071 6438.53 14130.3 6355.56L14131.4 6354L14132.5 6352.45C14156.3 6320.1 14180.4 6288.45 14204.8 6257.51C14156.5 6241.05 14107.7 6222.43 14058.4 6201.77L14050.1 6198.28L14042 6194.24C13954.2 6150.33 13905.9 6075.95 13882.6 6035.19L13878.8 6028.69L13875.5 6021.99C13849.3 5969.52 13826 5902.18 13826 5824.91C13826 5707.6 13871.5 5597.92 13960.6 5515.83H13960.6C13960.6 5515.78 13960.7 5515.72 13960.8 5515.66C13960.8 5515.62 13960.9 5515.57 13960.9 5515.53H13960.9C14039.9 5442.77 14141.4 5398.43 14256.3 5398.43ZM14729.9 5404.75C14729.9 5442.95 14735 5514.25 14745.2 5618.65C14756.7 5721.78 14770.7 5813.45 14787.2 5893.66C14696.8 5850.37 14616 5811.54 14544.7 5777.16C14474.6 5741.51 14416.7 5714.77 14370.9 5696.95C14325 5677.85 14286.9 5668.3 14256.3 5668.3C14214.3 5668.3 14176.7 5683.58 14143.6 5714.14C14111.8 5743.42 14095.9 5780.34 14095.9 5824.91C14095.9 5847.82 14102.9 5873.29 14116.9 5901.3C14132.2 5928.03 14147.4 5945.22 14162.7 5952.86C14256.9 5992.33 14346.1 6022.25 14430.1 6042.62C14514.1 6062.99 14609.6 6081.45 14716.6 6098C14589.2 6215.14 14467 6353.28 14349.9 6512.42C14337.1 6530.25 14330.8 6556.35 14330.8 6590.73C14330.8 6627.65 14346.1 6662.66 14376.6 6695.76C14408.4 6727.59 14447.9 6743.51 14495 6743.51C14534.5 6743.51 14569.5 6729.5 14600.1 6701.49C14630.6 6672.21 14662.4 6629.56 14695.5 6573.54C14728.6 6517.52 14793.6 6401.66 14890.3 6225.96C14985.8 6420.76 15063.5 6555.71 15123.3 6630.83C15184.4 6705.95 15239.2 6743.51 15287.6 6743.51C15336 6743.51 15375.4 6728.23 15406 6697.67C15436.5 6667.12 15451.8 6631.47 15451.8 6590.73C15451.8 6558.9 15444.8 6532.16 15430.8 6510.52C15418.1 6487.6 15394.5 6456.4 15360.1 6416.94C15325.8 6377.47 15299 6344.36 15279.9 6317.63C15277.4 6313.81 15250 6284.52 15197.8 6229.78C15145.6 6175.03 15101.7 6131.11 15066 6098C15263.4 6068.72 15444.2 6021.61 15608.4 5956.68C15626.2 5949.04 15642.8 5931.85 15658.1 5905.12C15674.6 5877.11 15682.9 5850.37 15682.9 5824.91C15682.9 5780.34 15666.3 5743.42 15633.2 5714.14C15601.4 5683.58 15563.2 5668.3 15518.7 5668.3C15491.9 5668.3 15456.3 5677.22 15411.7 5695.04C15367.1 5712.86 15307.3 5740.88 15232.2 5779.07C15157.1 5817.27 15078.1 5855.46 14995.4 5893.66C15005.6 5810.9 15014.5 5737.69 15022.1 5674.03C15031 5609.1 15037.4 5554.35 15041.2 5509.79C15046.3 5463.96 15048.9 5433.4 15048.9 5418.12C15048.9 5362.1 15033.6 5317.54 15003 5284.44C14973.7 5250.06 14936.2 5232.87 14890.3 5232.87C14843.2 5232.87 14804.4 5250.06 14773.8 5284.44C14744.6 5317.54 14729.9 5357.65 14729.9 5404.75Z" fill="white"/>
<path d="M16383.3 5398.43C16458.8 5398.43 16529.6 5419.09 16587.9 5442.22C16587.3 5428.45 16587 5415.93 16587 5404.75C16587 5296.5 16622.8 5191.49 16698.7 5105.63L16698.9 5105.39L16699.1 5105.14C16782.3 5011.58 16895.3 4963 17017.3 4963C17139.1 4963 17250.8 5012.41 17332 5105.41C17416.3 5199 17445.7 5313.04 17445.7 5418.12C17445.7 5425.45 17445.5 5433.42 17445.1 5441.85C17499.5 5420.54 17570.5 5398.43 17645.7 5398.43C17757.3 5398.43 17861.2 5438.81 17943.2 5515.73C18032.1 5596.38 18079.8 5705.61 18079.8 5824.91C18079.8 5909.48 18052.4 5982.68 18018.4 6040.65C17989.7 6090.48 17935.9 6164.36 17841.7 6204.73L17838.2 6206.24L17834.6 6207.65C17791.8 6224.57 17748.2 6240.34 17703.8 6255C17734.9 6291.49 17766.1 6331.65 17789.5 6372.04C17833.8 6444.31 17848.7 6521.71 17848.7 6590.73C17848.7 6707.72 17801.6 6810.74 17723.8 6888.5C17636.4 6975.92 17525.2 7013.38 17414.6 7013.38C17232.9 7013.38 17107.4 6882.78 17041 6801.15L17040.1 6800.07L17039.2 6798.98C17032 6789.93 17024.8 6780.4 17017.4 6770.41C16986.7 6816.07 16952.4 6859.33 16913.8 6896.34L16911.6 6898.41L16909.4 6900.43C16831.8 6971.55 16732.6 7013.38 16622 7013.38C16507 7013.38 16397.8 6971.6 16312.8 6886.59L16309 6882.78L16305.3 6878.81C16239.4 6807.4 16187.9 6709.72 16187.9 6590.73C16187.9 6529.83 16198 6438.53 16257.3 6355.56L16258.4 6354L16259.5 6352.45C16283.3 6320.1 16307.4 6288.45 16331.8 6257.51C16283.5 6241.05 16234.7 6222.43 16185.4 6201.77L16177.1 6198.28L16169 6194.24C16081.2 6150.33 16032.9 6075.95 16009.6 6035.19L16005.8 6028.69L16002.5 6021.99C15976.3 5969.52 15953 5902.18 15953 5824.91C15953 5707.6 15998.5 5597.92 16087.6 5515.83H16087.6C16087.6 5515.78 16087.7 5515.72 16087.8 5515.66C16087.8 5515.62 16087.9 5515.57 16087.9 5515.53H16087.9C16166.9 5442.77 16268.4 5398.43 16383.3 5398.43ZM16856.9 5404.75C16856.9 5442.95 16862 5514.25 16872.2 5618.65C16883.7 5721.78 16897.7 5813.45 16914.2 5893.66C16823.8 5850.37 16743 5811.54 16671.7 5777.16C16601.6 5741.51 16543.7 5714.77 16497.9 5696.95C16452 5677.85 16413.9 5668.3 16383.3 5668.3C16341.3 5668.3 16303.7 5683.58 16270.6 5714.14C16238.8 5743.42 16222.9 5780.34 16222.9 5824.91C16222.9 5847.82 16229.9 5873.29 16243.9 5901.3C16259.2 5928.03 16274.4 5945.22 16289.7 5952.86C16383.9 5992.33 16473.1 6022.25 16557.1 6042.62C16641.1 6062.99 16736.6 6081.45 16843.6 6098C16716.2 6215.14 16594 6353.28 16476.9 6512.42C16464.1 6530.25 16457.8 6556.35 16457.8 6590.73C16457.8 6627.65 16473.1 6662.66 16503.6 6695.76C16535.4 6727.59 16574.9 6743.51 16622 6743.51C16661.5 6743.51 16696.5 6729.5 16727.1 6701.49C16757.6 6672.21 16789.4 6629.56 16822.5 6573.54C16855.6 6517.52 16920.6 6401.66 17017.3 6225.96C17112.8 6420.76 17190.5 6555.71 17250.3 6630.83C17311.4 6705.95 17366.2 6743.51 17414.6 6743.51C17463 6743.51 17502.4 6728.23 17533 6697.67C17563.5 6667.12 17578.8 6631.47 17578.8 6590.73C17578.8 6558.9 17571.8 6532.16 17557.8 6510.52C17545.1 6487.6 17521.5 6456.4 17487.1 6416.94C17452.8 6377.47 17426 6344.36 17406.9 6317.63C17404.4 6313.81 17377 6284.52 17324.8 6229.78C17272.6 6175.03 17228.7 6131.11 17193 6098C17390.4 6068.72 17571.2 6021.61 17735.4 5956.68C17753.2 5949.04 17769.8 5931.85 17785.1 5905.12C17801.6 5877.11 17809.9 5850.37 17809.9 5824.91C17809.9 5780.34 17793.3 5743.42 17760.2 5714.14C17728.4 5683.58 17690.2 5668.3 17645.7 5668.3C17618.9 5668.3 17583.3 5677.22 17538.7 5695.04C17494.1 5712.86 17434.3 5740.88 17359.2 5779.07C17284.1 5817.27 17205.1 5855.46 17122.4 5893.66C17132.6 5810.9 17141.5 5737.69 17149.1 5674.03C17158 5609.1 17164.4 5554.35 17168.2 5509.79C17173.3 5463.96 17175.9 5433.4 17175.9 5418.12C17175.9 5362.1 17160.6 5317.54 17130 5284.44C17100.7 5250.06 17063.2 5232.87 17017.3 5232.87C16970.2 5232.87 16931.4 5250.06 16900.8 5284.44C16871.6 5317.54 16856.9 5357.65 16856.9 5404.75Z" fill="white"/>
<path d="M1037.3 9217.57L923.172 7738.43H988.818L1048.03 8592.21L1069.91 8909.76L1089.65 8604.74L1148.86 7738.43H1214.08L1269.85 8596.39L1288.73 8879.12L1310.18 8593.6L1374.11 7738.43H1435.9L1318.77 9217.57H1253.12L1193.48 8331.76L1179.32 8079.66L1103.81 9217.57H1037.3Z" fill="white"/>
<path d="M811.613 9035.12C790.446 9106.61 768.421 9160.47 745.537 9196.68C722.654 9232.89 698.913 9251 674.313 9251C635.412 9251 604.376 9212.93 581.207 9136.79C558.038 9060.65 546.453 8958.05 546.453 8828.98C546.453 8743.56 551.888 8667.88 562.757 8601.96C573.627 8536.03 588.501 8484.5 607.38 8447.36C626.258 8410.22 654.863 8382.83 693.192 8365.18C744.679 8341.04 782.437 8312.26 806.464 8278.83L806.893 8214.76C806.893 8113.55 801.315 8042.52 790.16 8001.66C774.428 7942.24 750.257 7912.53 717.648 7912.53C688.186 7912.53 666.161 7932.49 651.573 7972.42C636.985 8011.41 626.258 8085.23 619.394 8193.87L557.18 8160.44C566.047 8001.66 583.924 7886.06 610.812 7813.64C637.986 7741.21 676.745 7705 727.088 7705C766.275 7705 797.025 7729.14 819.336 7777.43C841.647 7824.78 855.663 7883.74 861.384 7954.31C867.391 8024.88 870.394 8127.94 870.394 8263.51V8597.78C870.394 8831.77 871.681 8979.41 874.256 9040.69C877.116 9101.04 882.551 9160 890.56 9217.57H824.485C817.906 9166.5 813.615 9105.69 811.613 9035.12ZM806.464 8475.21C783.295 8512.36 748.827 8543.93 703.06 8569.92C676.459 8584.78 657.866 8601.96 647.282 8621.46C636.699 8640.03 628.404 8666.96 622.397 8702.24C616.676 8736.6 613.816 8776.52 613.816 8822.02C613.816 8892.59 620.538 8949.23 633.982 8991.94C647.426 9033.72 666.018 9054.62 689.759 9054.62C712.357 9054.62 732.809 9035.58 751.115 8997.51C769.708 8959.44 783.581 8908.84 792.734 8845.7C801.887 8781.63 806.464 8688.78 806.464 8567.14V8475.21Z" fill="white"/>
<path d="M327.633 9217.57V7738.43H384.698V7962.67C399.286 7858.67 412.587 7789.96 424.601 7756.53C436.9 7722.18 450.63 7705 465.79 7705C486.957 7705 508.554 7731.93 530.579 7785.78L509.126 8018.38C493.393 7982.17 478.09 7964.06 463.216 7964.06C449.772 7964.06 437.472 7979.38 426.317 8010.02C415.161 8040.66 407.295 8083.38 402.718 8138.16C394.709 8233.8 390.705 8335.47 390.705 8443.18V9217.57H327.633Z" fill="white"/>
<path d="M147 8023.95V7738.43H219.082V8023.95H147ZM147 9217.57V8932.05H219.082V9217.57H147Z" fill="white"/>
</svg>
